# xmcd
#
# Track frame offsets: 
#        150
#        2605
#        25836
#        38068
#        60705
#        80286
#        95989
#        118532
#        138424
#        159074
#        177920
#        202019
#
# Disc length: 2713 seconds
#
# Revision: 6
# Processed by: cddbd v1.5.2PL0 Copyright (c) Steve Scherf et al.
# Submitted via: ExactAudioCopy v0.99pb3
#
DISCID=930a970c
DTITLE=Eisregen - Wundwasser
DYEAR=2004
DGENRE=Dark Metal
TTITLE0=Intro - Wahrheit...?
TTITLE1=mein Eichensarg
TTITLE2=am Glockenseil
TTITLE3=vom Muttermord
TTITLE4=blutgeil
TTITLE5=Ripper von Rostow
TTITLE6=hinein ins Tränenmeer
TTITLE7=Glas
TTITLE8=was vom Leben übrig bleibt
TTITLE9=Kreuznarbe
TTITLE10=Wundwasser
TTITLE11=Outro - Ende...?
EXTD=YEAR: 2004
EXTT0=
EXTT1=
EXTT2=
EXTT3=
EXTT4=
EXTT5=
EXTT6=
EXTT7=
EXTT8=
EXTT9=
EXTT10=
EXTT11=
PLAYORDER=
